<svg width="40" height="40" viewBox="0 0 40 40" fill="none" xmlns="http://www.w3.org/2000/svg">
<path d="M31.0523 6.53723H29.4179V4.90289C29.4179 4.00401 28.6825 3.26855 27.7836 3.26855C26.8847 3.26855 26.1492 4.00401 26.1492 4.90289V6.53723H13.0745V4.90289C13.0745 4.00401 12.3391 3.26855 11.4402 3.26855C10.5413 3.26855 9.80585 4.00401 9.80585 4.90289V6.53723H8.17151C6.35739 6.53723 4.91918 8.00814 4.91918 9.80591L4.90283 32.6867C4.90283 33.5536 5.24721 34.385 5.86021 34.998C6.4732 35.611 7.3046 35.9553 8.17151 35.9553H31.0523C32.85 35.9553 34.3209 34.4844 34.3209 32.6867V9.80591C34.3209 8.00814 32.85 6.53723 31.0523 6.53723ZM31.0523 31.0523C31.0523 31.9512 30.3168 32.6867 29.4179 32.6867H9.80585C8.90696 32.6867 8.17151 31.9512 8.17151 31.0523V14.7089H31.0523V31.0523ZM11.4402 17.9776H14.7089V21.2463H11.4402V17.9776ZM17.9775 17.9776H21.2462V21.2463H17.9775V17.9776ZM24.5149 17.9776H27.7836V21.2463H24.5149V17.9776Z" fill="#4A4AFF"/>
</svg>
