<svg width="28" height="28" viewBox="0 0 28 28" fill="none" xmlns="http://www.w3.org/2000/svg">
<path d="M23.3335 4.6665H4.66683C3.3835 4.6665 2.3335 5.7165 2.3335 6.99984V20.9998C2.3335 22.2832 3.3835 23.3332 4.66683 23.3332H23.3335C24.6168 23.3332 25.6668 22.2832 25.6668 20.9998V6.99984C25.6668 5.7165 24.6168 4.6665 23.3335 4.6665ZM22.8668 9.62484L15.2368 14.3965C14.4785 14.8748 13.5218 14.8748 12.7635 14.3965L5.1335 9.62484C5.01651 9.55917 4.91407 9.47044 4.83237 9.36403C4.75066 9.25763 4.6914 9.13575 4.65817 9.00577C4.62493 8.8758 4.61842 8.74043 4.63901 8.60786C4.65961 8.4753 4.70689 8.34829 4.77799 8.23452C4.84909 8.12076 4.94254 8.0226 5.05268 7.946C5.16281 7.86939 5.28735 7.81593 5.41874 7.78885C5.55014 7.76177 5.68566 7.76163 5.81711 7.78844C5.94856 7.81526 6.0732 7.86846 6.1835 7.94484L14.0002 12.8332L21.8168 7.94484C21.9271 7.86846 22.0518 7.81526 22.1832 7.78844C22.3147 7.76163 22.4502 7.76177 22.5816 7.78885C22.713 7.81593 22.8375 7.86939 22.9476 7.946C23.0578 8.0226 23.1512 8.12076 23.2223 8.23452C23.2934 8.34829 23.3407 8.4753 23.3613 8.60786C23.3819 8.74043 23.3754 8.8758 23.3422 9.00577C23.3089 9.13575 23.2497 9.25763 23.168 9.36403C23.0863 9.47044 22.9838 9.55917 22.8668 9.62484Z" fill="black"/>
</svg>
