<svg width="28" height="35" viewBox="0 0 28 35" fill="none" xmlns="http://www.w3.org/2000/svg">
<path d="M14.2014 0.870117C17.8238 0.870117 21.2979 2.30912 23.8593 4.87057C26.4208 7.43202 27.8598 10.9061 27.8598 14.5285C27.8598 20.3001 23.8043 26.5899 15.7984 33.4654C15.3532 33.8478 14.7856 34.0578 14.1988 34.0573C13.6119 34.0568 13.0447 33.8458 12.6002 33.4626L12.0707 33.0031C4.41915 26.307 0.542969 20.1712 0.542969 14.5285C0.542969 10.9061 1.98198 7.43202 4.54342 4.87057C7.10487 2.30912 10.5789 0.870117 14.2014 0.870117ZM14.2014 9.27529C12.8081 9.27529 11.4719 9.82875 10.4868 10.8139C9.50161 11.7991 8.94814 13.1353 8.94814 14.5285C8.94814 15.9218 9.50161 17.2579 10.4868 18.2431C11.4719 19.2283 12.8081 19.7818 14.2014 19.7818C15.5946 19.7818 16.9308 19.2283 17.916 18.2431C18.9011 17.2579 19.4546 15.9218 19.4546 14.5285C19.4546 13.1353 18.9011 11.7991 17.916 10.8139C16.9308 9.82875 15.5946 9.27529 14.2014 9.27529Z" fill="#4A4AFF"/>
</svg>
