<svg width="731" height="116" viewBox="0 0 731 116" fill="none" xmlns="http://www.w3.org/2000/svg">
<path d="M186.959 40.56V90H173.039V22.8H186.191C189.071 22.8 191.663 24.432 193.007 27.024L209.327 58.896L225.647 27.024C226.991 24.432 229.583 22.8 232.463 22.8H241.007L209.135 85.2L186.959 40.56ZM245.615 24.72V90H231.695V51.6L245.615 24.72ZM312.834 34.8H264.45V22.8H320.898L317.25 31.728C316.482 33.552 314.754 34.8 312.834 34.8ZM299.97 62.256H264.45V50.544H307.842L304.386 59.184C303.618 61.008 301.89 62.256 299.97 62.256ZM313.122 90H264.45V78H320.898L317.634 86.832C316.962 88.752 315.138 90 313.122 90ZM364.184 91.056C344.6 91.056 328.376 76.656 328.376 56.592C328.376 36.528 344.6 21.84 364.184 21.84C374.648 21.84 385.208 26.256 392.024 34.32C389.72 35.952 384.152 40.56 381.464 40.56C378.584 40.56 373.688 34.608 364.184 34.608C351.896 34.608 342.68 44.304 342.68 56.592C342.68 68.88 352.28 78.288 364.568 78.288C373.784 78.288 378.68 72.624 381.464 72.624C384.152 72.624 389.432 77.136 391.736 78.768C385.112 86.544 374.456 91.056 364.184 91.056ZM412.009 91.056C407.785 91.056 404.233 87.504 404.233 83.28C404.233 78.96 407.689 75.408 412.009 75.408C416.425 75.408 419.881 78.864 419.881 83.28C419.881 87.6 416.329 91.056 412.009 91.056ZM466.877 91.056C447.293 91.056 431.069 76.656 431.069 56.592C431.069 36.528 447.293 21.84 466.877 21.84C477.341 21.84 487.901 26.256 494.717 34.32C492.413 35.952 486.845 40.56 484.157 40.56C481.277 40.56 476.381 34.608 466.877 34.608C454.589 34.608 445.373 44.304 445.373 56.592C445.373 68.88 454.973 78.288 467.261 78.288C476.477 78.288 481.373 72.624 484.157 72.624C486.845 72.624 492.125 77.136 494.429 78.768C487.805 86.544 477.149 91.056 466.877 91.056ZM542.081 91.056C522.593 91.056 506.561 76.176 506.561 56.4C506.561 36.624 522.593 21.744 542.081 21.744C561.569 21.744 577.697 36.624 577.697 56.4C577.697 76.176 561.569 91.056 542.081 91.056ZM542.081 78.288C554.561 78.288 563.393 68.688 563.393 56.4C563.393 44.112 554.561 34.512 542.081 34.512C529.697 34.512 520.865 44.208 520.865 56.4C520.865 68.592 529.697 78.288 542.081 78.288ZM655.038 22.8V82.032L641.118 63.12V22.8H655.038ZM655.038 90H644.094C641.886 90 639.294 88.944 637.95 87.024L608.478 45.072V90H594.558V22.8H604.062C606.27 22.8 608.862 23.856 610.11 25.776C619.326 39.312 628.254 53.136 637.758 66.288C643.518 74.256 649.278 82.128 655.038 90ZM721.949 34.8H673.469V22.8H729.917L726.461 31.728C725.789 33.552 723.869 34.8 721.949 34.8ZM687.389 64.656V90H673.469V50.544H716.765L713.789 58.992C713.117 60.912 711.293 62.256 709.277 62.256H689.789C689.117 62.256 688.541 62.448 688.061 62.928C687.581 63.408 687.389 63.984 687.389 64.656Z" fill="white"/>
<path fill-rule="evenodd" clip-rule="evenodd" d="M59.3223 23.5995L39.2559 57.3869L59.3223 91.1743H73.5752L53.5087 57.3869L73.5752 23.5995H59.3223ZM99.4553 23.5995L119.522 57.3869L99.4553 91.1743H113.708L133.775 57.3869L113.708 23.5995H99.4553Z" fill="#4A4AFF"/>
<g filter="url(#filter0_d_195_740)">
<path d="M10 57.3865L33.2546 18.0828H79.7638L103.018 57.3865L79.7638 96.6902H33.2546L10 57.3865Z" fill="white"/>
</g>
<defs>
<filter id="filter0_d_195_740" x="0" y="15.083" width="113.018" height="98.6074" filterUnits="userSpaceOnUse" color-interpolation-filters="sRGB">
<feFlood flood-opacity="0" result="BackgroundImageFix"/>
<feColorMatrix in="SourceAlpha" type="matrix" values="0 0 0 0 0 0 0 0 0 0 0 0 0 0 0 0 0 0 127 0" result="hardAlpha"/>
<feOffset dy="7"/>
<feGaussianBlur stdDeviation="5"/>
<feComposite in2="hardAlpha" operator="out"/>
<feColorMatrix type="matrix" values="0 0 0 0 0 0 0 0 0 0 0 0 0 0 0 0 0 0 0.25 0"/>
<feBlend mode="normal" in2="BackgroundImageFix" result="effect1_dropShadow_195_740"/>
<feBlend mode="normal" in="SourceGraphic" in2="effect1_dropShadow_195_740" result="shape"/>
</filter>
</defs>
</svg>
