<svg width="291" height="291" viewBox="0 0 291 291" fill="none" xmlns="http://www.w3.org/2000/svg">
<path d="M290.295 163.778C289.704 162.187 288.272 161.027 286.544 160.823C140.317 141.68 89.3462 43.9226 88.846 42.9223C88.5348 42.3024 88.0889 41.7599 87.5411 41.3343C86.9932 40.9088 86.3572 40.6111 85.6796 40.4629C85.0019 40.3148 84.2997 40.3199 83.6242 40.4779C82.9488 40.636 82.3172 40.9429 81.7756 41.3764L2.15983 104.555C0.432018 105.919 -0.0908724 108.306 0.863971 110.262C64.9749 241.143 193.879 274.222 195.175 274.563C196.014 274.768 196.894 274.737 197.717 274.472C198.54 274.207 199.273 273.719 199.835 273.062L289.477 168.484C290.614 167.188 290.909 165.392 290.295 163.778ZM121.674 234.232C119.31 234.232 116.491 233.095 115.445 230.936C114.399 228.799 114.854 226.23 116.332 224.411C117.4 223.092 118.878 222.319 120.447 222.024C129.904 220.25 133.451 234.232 121.674 234.232ZM139.157 220.523C136.793 220.523 133.974 219.387 132.928 217.25C131.859 215.112 132.337 212.544 133.815 210.725C134.883 209.406 136.361 208.633 137.93 208.338C147.432 206.542 150.934 220.523 139.157 220.523ZM155.185 205.814C152.798 205.814 149.979 204.677 148.933 202.518C147.887 200.381 148.365 197.812 149.842 195.993C150.934 194.674 152.389 193.901 153.957 193.606C163.437 191.81 166.961 205.814 155.185 205.814ZM170.235 190.287C167.871 190.287 165.074 189.15 164.006 186.99C162.937 184.853 163.415 182.284 164.892 180.465C165.961 179.147 167.416 178.374 168.985 178.078C178.488 176.305 182.011 190.287 170.235 190.287ZM186.354 173.281C184.012 173.69 181.034 173.054 179.624 171.099C178.238 169.166 178.26 166.552 179.397 164.506C180.238 163.028 181.557 162.028 183.057 161.459C192.106 158.095 197.948 171.281 186.354 173.281ZM200.176 157.458C197.835 157.822 194.879 157.117 193.492 155.162C192.128 153.207 192.196 150.592 193.379 148.569C194.243 147.091 195.561 146.114 197.084 145.591C206.178 142.362 211.816 155.662 200.176 157.458Z" fill="#4A4AFF"/>
<path d="M108.147 157.117C106.988 158.094 107.102 159.64 108.398 160.573C108.398 160.573 112.626 164.096 119.765 168.962C126.972 173.872 133.769 177.237 133.769 177.237C135.201 178.101 137.338 178.01 138.498 177.009L144.181 172.258C145.386 171.258 145.182 169.734 143.772 168.871C143.772 168.871 135.611 164.324 129.541 160.368C122.288 155.616 118.242 152.411 118.242 152.411C116.9 151.479 114.877 151.502 113.695 152.479L108.147 157.117ZM92.8018 170.985C91.665 171.94 91.6878 173.577 92.87 174.6C92.87 174.6 99.2356 180.42 104.033 184.262C108.852 188.149 115.763 193.674 115.763 193.674C117.037 194.697 119.037 194.72 120.197 193.765L127.131 187.945C128.29 186.967 128.154 185.421 126.812 184.512C126.812 184.512 119.492 179.692 114.218 175.964C108.92 172.213 102.214 166.779 102.214 166.779C100.963 165.801 99.031 165.801 97.8715 166.756L92.8018 170.985ZM80.8889 99.3943C79.775 100.281 79.6386 101.895 80.5934 103.009L82.6168 105.283C83.6171 106.374 85.3449 106.533 86.4816 105.646L90.5511 102.441C91.6878 101.531 91.8014 99.94 90.7784 98.8714L88.6641 96.6435C87.6638 95.5749 85.936 95.4158 84.7765 96.3252L80.8889 99.3943ZM100.645 120.083C99.4857 120.992 99.4402 122.561 100.554 123.584L104.919 127.585C106.056 128.608 107.92 128.699 109.102 127.812L113.808 124.175C114.968 123.265 114.991 121.719 113.831 120.719L109.284 116.763C108.147 115.74 106.283 115.672 105.124 116.559L100.645 120.083ZM126.653 134.314C127.835 133.405 127.79 131.904 126.54 130.972L122.22 127.63C120.992 126.676 119.037 126.63 117.855 127.539L113.058 131.222C111.899 132.132 111.899 133.655 113.081 134.655L117.264 138.043C118.469 139.02 120.424 139.066 121.606 138.156L126.653 134.314ZM140.817 143.999C142.022 143.09 141.908 141.635 140.567 140.771L135.611 137.474C134.315 136.588 132.269 136.611 131.086 137.52L125.926 141.43C124.744 142.317 124.812 143.817 126.062 144.749L130.814 148.114C132.109 149.023 134.178 149.023 135.361 148.114L140.817 143.999ZM81.5028 92.6649C82.6395 91.7783 82.7986 90.1414 81.8438 89.0275L78.2972 84.8898C77.3878 83.7758 75.751 83.6167 74.637 84.526L71.1586 87.3678C70.0674 88.2772 69.8628 89.9368 70.7494 91.0735L74.0459 95.2112C74.9553 96.3479 76.6149 96.5298 77.7516 95.6432L81.5028 92.6649ZM150.388 146.75C149.001 145.954 146.864 146.068 145.636 146.977L140.044 151.206C138.839 152.115 138.975 153.548 140.317 154.389L150.706 160.482C152.116 161.277 154.23 161.141 155.389 160.163L161.232 155.321C162.414 154.343 162.164 152.934 160.709 152.206L150.388 146.75ZM101.395 113.149C102.532 112.262 102.6 110.671 101.532 109.625L98.0307 106.237C96.9849 105.192 95.1661 105.078 94.0294 105.965L89.8463 109.238C88.6868 110.125 88.6186 111.739 89.6189 112.808L92.9836 116.241C94.0521 117.309 95.8482 117.445 97.0076 116.536L101.395 113.149ZM99.8721 152.888C100.259 152.911 100.6 152.866 100.941 152.706C102.623 151.933 106.556 148.273 107.056 147.887C108.943 146.409 108.602 145.25 107.238 144.227C106.238 143.476 105.328 142.658 104.374 141.862C102.509 140.316 93.6429 134.519 81.0253 120.787C70.0901 108.897 63.0197 98.394 62.5423 97.7575C62.2013 97.2573 61.883 96.6889 61.3601 96.3479C60.3825 95.7114 59.2686 97.1209 58.6093 97.6665L56.1994 99.6671L54.6989 100.895C53.7896 101.668 53.9942 102.668 54.5853 103.577C55.1536 104.441 55.7447 105.305 56.3131 106.169C57.6317 108.124 58.973 110.079 60.3598 111.989C62.0876 114.376 63.8836 116.718 65.7251 119.06C67.8849 121.788 70.1356 124.493 72.4545 127.13C78.0625 133.525 84.0124 139.612 90.2782 145.363C92.0515 147 93.8703 148.614 95.7118 150.183C96.5529 150.91 97.4623 151.888 98.4171 152.456C98.8718 152.661 99.372 152.843 99.8721 152.888ZM92.7108 159.504C92.7108 158.708 91.7787 158.049 91.2331 157.549C90.5056 156.912 89.7781 156.253 89.0733 155.594C87.6865 154.298 86.277 153.002 84.9129 151.706C81.5482 148.501 78.2972 145.227 75.1371 141.908C72.2953 138.907 69.5445 135.838 66.8618 132.746C64.5202 130.04 62.224 127.244 60.0188 124.448C58.1546 122.061 56.3358 119.651 54.5625 117.195C53.153 115.24 51.7435 113.24 50.4021 111.239C49.8793 110.443 49.3336 109.625 48.8107 108.806C48.5834 108.443 48.356 108.102 48.1287 107.738C47.8559 107.306 47.4239 106.647 46.8783 106.624C46.0599 106.601 45.6961 107.192 45.105 107.692C44.1729 108.443 43.2636 109.193 42.3314 109.966C41.8768 110.33 41.4221 110.716 40.9674 111.103C39.3532 112.421 40.3308 113.49 41.2629 114.967C41.7858 115.786 42.3087 116.604 42.8089 117.4C44.082 119.378 45.3778 121.31 46.7192 123.243C48.356 125.607 50.0611 127.949 51.7889 130.29C53.8578 133.018 55.9493 135.701 58.1091 138.384C60.5644 141.43 63.1334 144.454 65.7478 147.432C68.6806 150.751 71.7043 154.048 74.7961 157.276C76.3193 158.89 77.888 160.459 79.4567 162.05C80.1387 162.732 80.798 163.414 81.48 164.096C83.3443 165.983 84.7993 166.552 86.9363 164.938C88.0503 164.119 89.0961 163.232 90.1646 162.346C90.983 161.596 92.7335 160.709 92.7108 159.504Z" fill="black"/>
</svg>
