<svg width="28" height="28" viewBox="0 0 28 28" fill="none" xmlns="http://www.w3.org/2000/svg">
<path d="M18.6679 19.8914L21.0789 17.4803C21.4037 17.1596 21.8145 16.9401 22.2616 16.8484C22.7087 16.7566 23.1729 16.7967 23.5976 16.9637L26.5361 18.1369C26.9654 18.3111 27.3335 18.6086 27.594 18.9917C27.8545 19.3748 27.9958 19.8264 28 20.2897V25.6715C27.9975 25.9867 27.9313 26.298 27.8053 26.5869C27.6792 26.8757 27.4961 27.1361 27.2668 27.3523C27.0375 27.5685 26.7668 27.7361 26.4711 27.845C26.1753 27.9538 25.8606 28.0017 25.5459 27.9857C4.95488 26.7048 0.800086 9.2676 0.0143345 2.5941C-0.0221406 2.26638 0.0111858 1.93466 0.112121 1.62075C0.213056 1.30684 0.379313 1.01785 0.599953 0.77281C0.820593 0.527767 1.09062 0.332218 1.39226 0.199026C1.6939 0.0658349 2.02033 -0.00197962 2.35006 4.39903e-05H7.54894C8.01286 0.00141721 8.46577 0.141552 8.8494 0.402423C9.23304 0.663295 9.52986 1.03297 9.70168 1.46391L10.8749 4.4024C11.0474 4.82549 11.0914 5.29003 11.0015 5.73798C10.9115 6.18593 10.6915 6.59745 10.369 6.92111L7.95796 9.33219C7.95796 9.33219 9.34648 18.7289 18.6679 19.8914Z" fill="black"/>
</svg>
